<?xml version="1.0" encoding="utf-8"?>
<!-- Generator: Adobe Illustrator 21.1.0, SVG Export Plug-In . SVG Version: 6.00 Build 0)  -->
<svg version="1.1" id="レイヤー_1" xmlns="http://www.w3.org/2000/svg" xmlns:xlink="http://www.w3.org/1999/xlink" x="0px"
	 y="0px" viewBox="0 0 338.4 338" style="enable-background:new 0 0 338.4 338;" xml:space="preserve">
<style type="text/css">
	.st0{opacity:0.3;fill:#FF0000;}
</style>
<path class="st0" d="M174.4,0.6C163.2,32,173.2,51.1,203.9,57c-12,27.5-8.7,52.6,15.1,71.8c19.9,16.1,42.2,15.9,64.5,4
	c15.2,22.3,26.9,26.3,52.6,18c9.6,47.7-13.6,122.9-78.7,162.4c-62,37.6-142.5,31.9-196.3-14.2C3.9,250-15.4,172.7,12.8,104.9
	C40,39.7,108.1-4.6,174.4,0.6z M141.7,31.5C83.4,40.6,23.4,98.9,28.3,178.2c4.8,76.7,70.4,135,148.3,132
	c68.2-2.6,132.2-64,132.1-125c-11.1-6-21.5-11.7-32-17.1c-1.8-0.9-4.4-1.2-6.5-0.8c-60.9,10.8-104.3-39.2-100.6-86.8
	c0.2-2.8-1-6.9-3-8.5C153.5,61.7,145.5,48.3,141.7,31.5z"/>
<path class="st0" d="M254.3,21.6C254.1,10,263.1,0.4,274.5,0c11.2-0.4,21,9.1,21.5,20.6c0.4,11.4-8.9,21.1-20.5,21.3
	C263.7,42.1,254.5,33.3,254.3,21.6z"/>
<path class="st0" d="M323.8,112.2c-8-0.2-13.7-6.3-13.2-14.4c0.5-8.4,5.7-12.5,13.7-12.9c7.6-0.3,14.2,6.4,14.1,13.9
	C338.3,106.3,331.5,112.5,323.8,112.2z"/>
<path class="st0" d="M253.6,98.2c-8.1-0.1-13.7-5.8-13.4-14.1c0.3-8.4,5.2-12.8,13.3-13.3c7.8-0.5,14,5.8,14.1,13.7
	C267.7,92.2,261.6,98.3,253.6,98.2z"/>
<path class="st0" d="M126.5,155.1c0.1,15.8-11.9,27.7-27.8,27.6c-15.8,0-27.8-12-27.9-27.8c-0.1-15.4,12.3-27.7,28-27.7
	C114.7,127.3,126.5,139.2,126.5,155.1z"/>
<path class="st0" d="M198,245.5c0.4-11.8,9.5-20,21.7-19.5c11.7,0.5,20.2,9.9,19.7,21.7c-0.5,11.4-10.4,20.4-22,19.8
	C205.9,266.9,197.5,257.5,198,245.5z"/>
<path class="st0" d="M140.6,232.2c0.2,11.9-8.5,20.9-20.3,21.2c-11.6,0.3-20.9-8.8-21.2-20.5c-0.2-11.9,8.5-20.8,20.4-21
	C131.6,211.7,140.4,220.2,140.6,232.2z"/>
<path class="st0" d="M141.2,84.8c7.8,0,13.8,6.2,13.4,14.2c-0.4,8.3-4.8,12.9-13.2,13.2c-8.2,0.3-13.9-5.3-14-13.4
	C127.4,90.7,133.2,84.8,141.2,84.8z"/>
<path class="st0" d="M182.8,169.4c-0.1,8.1-5.9,13.5-14.2,13.3c-8-0.2-13.4-6.1-13-14.4c0.5-8.4,5.4-12.5,13.6-12.7
	C177.4,155.4,183,161.3,182.8,169.4z"/>
</svg>
